<?xml version="1.0" standalone="no"?>
<!DOCTYPE svg PUBLIC "-//W3C//DTD SVG 20010904//EN"
 "http://www.w3.org/TR/2001/REC-SVG-20010904/DTD/svg10.dtd">
<svg version="1.0" xmlns="http://www.w3.org/2000/svg"
 width="512.000000pt" height="512.000000pt" viewBox="0 0 512.000000 512.000000"
 preserveAspectRatio="xMidYMid meet">
<metadata>
Created by potrace 1.14, written by Peter Selinger 2001-2017
</metadata>
<g transform="translate(0.000000,512.000000) scale(0.100000,-0.100000)"
fill="#000000" stroke="none">
<path d="M2927 4656 c-8 -8 -19 -50 -26 -93 -7 -43 -14 -89 -17 -103 -2 -14
-13 -83 -24 -155 -27 -168 -29 -185 -35 -215 -5 -29 -16 -96 -20 -125 -1 -11
-3 -21 -4 -22 0 -2 -27 14 -60 35 -32 21 -78 46 -103 55 -40 16 -44 20 -40 46
2 16 -1 32 -8 36 -18 11 -60 -4 -60 -23 -1 -10 -9 -3 -23 20 -12 21 -25 38
-28 38 -4 0 -16 -19 -27 -42 -20 -42 -22 -99 -7 -183 29 -166 3 -205 -147
-221 -43 -5 -48 -4 -48 15 0 27 -36 47 -56 30 -8 -6 -14 -20 -14 -29 0 -12
-10 -21 -31 -25 -42 -10 -99 -68 -99 -104 0 -15 11 -50 25 -77 28 -55 28 -55
18 -52 -8 1 -15 -1 -100 -35 -109 -43 -150 -107 -113 -176 6 -12 9 -21 8 -22
-2 0 -14 -3 -28 -5 -38 -7 -70 -32 -71 -57 0 -12 -2 -29 -4 -38 -1 -9 8 -38
21 -65 15 -32 20 -51 12 -55 -36 -22 -88 -73 -88 -86 0 -23 58 -128 94 -169
32 -37 32 -37 20 -93 l-12 -56 36 -33 c21 -19 54 -43 75 -53 21 -11 40 -25 42
-32 2 -7 36 -113 75 -237 66 -208 126 -396 170 -530 22 -65 89 -275 156 -485
157 -493 188 -580 210 -581 18 -1 25 11 43 70 12 39 25 78 28 86 4 8 7 17 8
20 0 3 11 37 24 75 13 39 24 75 25 80 2 6 31 98 66 205 35 107 65 200 66 205
1 6 29 93 62 195 61 186 116 359 232 720 l63 196 73 39 c41 22 71 41 67 42 -5
2 -6 25 -5 52 4 50 -12 96 -42 120 -14 12 -12 20 16 73 17 33 32 79 34 104 3
42 1 46 -39 74 -66 48 -77 59 -72 72 7 21 15 69 21 134 6 58 5 62 -25 97 -18
20 -52 48 -76 64 -43 27 -43 28 -39 75 4 36 19 69 64 140 33 51 73 116 90 143
17 28 48 77 70 110 21 33 39 72 39 87 1 33 -33 59 -81 62 -31 1 -35 -5 -130
-154 -54 -85 -102 -158 -108 -164 -6 -6 -15 -4 -25 4 -10 8 -34 11 -70 8 -30
-3 -56 -1 -56 4 -5 30 -4 57 2 83 4 17 10 53 14 80 9 77 16 119 20 135 3 8 7
35 11 60 13 102 26 186 38 250 3 14 8 43 11 65 11 77 16 110 21 135 3 14 7 50
10 81 5 51 4 58 -17 73 -29 20 -83 21 -102 2z"/>
<path d="M2908 268 c-2 -6 -19 -11 -38 -10 -38 1 -63 -14 -54 -32 3 -6 -2 -2
-11 9 -22 27 -65 28 -66 0 -1 -16 -2 -16 -6 -3 -5 19 -28 29 -58 24 -17 -2
-20 -11 -21 -50 0 -26 3 -49 8 -52 4 -3 8 2 8 11 0 11 5 15 15 11 9 -3 24 3
35 14 16 16 20 17 20 5 0 -8 4 -15 8 -15 4 0 8 12 8 27 -1 19 5 29 17 31 13 3
17 -3 17 -27 0 -17 5 -31 10 -31 6 0 10 7 10 17 0 24 13 7 14 -19 1 -15 8 -24
21 -26 33 -4 46 12 47 57 0 44 14 45 20 1 2 -17 10 -26 25 -28 18 -3 21 1 17
22 -2 13 0 28 6 31 19 11 10 25 -16 25 -14 0 -23 4 -19 10 3 6 2 10 -4 10 -5
0 -11 -5 -13 -12z m-188 -46 c-1 -18 -20 -34 -34 -29 -16 6 -22 38 -10 50 8 7
44 -10 44 -21z m160 -1 c0 -14 -28 -33 -40 -26 -11 7 -14 38 -4 48 8 8 44 -10
44 -22z m60 -3 c0 -23 -3 -29 -9 -19 -5 7 -7 21 -6 30 5 22 4 21 10 21 3 0 5
-15 5 -32z m-70 -42 c-10 -13 -40 -12 -40 1 0 3 7 3 15 0 8 -4 17 -2 20 3 4 6
9 10 12 10 3 0 0 -6 -7 -14z"/>
<path d="M2980 245 c-16 -19 -9 -45 16 -62 19 -12 24 -12 38 2 9 9 13 22 10
28 -3 7 4 0 17 -15 32 -35 69 -24 69 21 0 25 -5 32 -27 37 -18 5 -30 2 -38
-10 -11 -14 -14 -15 -25 -1 -16 19 -44 19 -60 0z m48 -27 c1 -28 -20 -39 -33
-18 -3 6 1 10 10 10 9 0 13 5 10 10 -4 6 -11 8 -16 5 -9 -6 -13 8 -4 17 15 14
32 2 33 -24z m81 18 c10 -11 7 -14 -13 -12 -18 1 -22 4 -14 14 13 15 13 15 27
-2z m-3 -38 c-20 -11 -44 1 -25 12 6 5 19 6 27 3 12 -5 12 -7 -2 -15z"/>
<path d="M2005 240 c-3 -5 -4 -10 -1 -10 3 0 1 -11 -4 -24 -9 -24 2 -36 31
-36 15 0 40 46 33 64 -7 17 -49 22 -59 6z m45 -19 c0 -19 -23 -45 -32 -36 -3
3 -3 17 0 30 5 29 32 34 32 6z"/>
<path d="M2456 243 c-4 -5 -12 -9 -17 -9 -5 -1 -13 -2 -18 -3 -14 -2 -20 -38
-8 -50 20 -20 36 -11 46 26 11 38 10 48 -3 36z m-12 -38 c-4 -8 -10 -15 -15
-15 -5 0 -9 7 -9 15 0 8 7 15 15 15 9 0 12 -6 9 -15z"/>
<path d="M2509 238 c0 -7 -3 -25 -5 -39 -3 -21 0 -25 16 -24 35 2 45 21 26 49
-18 28 -35 34 -37 14z m31 -33 c0 -8 -4 -15 -10 -15 -5 0 -10 7 -10 15 0 8 5
15 10 15 6 0 10 -7 10 -15z"/>
<path d="M2150 230 c-13 -8 -6 -30 11 -30 6 0 7 5 3 12 -5 8 -2 9 9 5 10 -3
17 -2 17 2 0 13 -25 20 -40 11z"/>
<path d="M2287 206 c-6 -40 0 -46 13 -12 12 32 30 26 23 -7 -4 -18 -3 -19 6
-7 18 25 13 47 -13 52 -21 4 -25 0 -29 -26z"/>
<path d="M2076 213 c-9 -23 14 -45 34 -33 13 9 13 10 -1 10 -9 0 -16 7 -16 15
0 20 4 19 33 -11 26 -25 44 -28 51 -7 3 7 -4 9 -16 6 -13 -3 -23 2 -30 16 -14
25 -46 28 -55 4z"/>
<path d="M2196 206 c-8 -30 -7 -38 4 -31 6 3 10 16 11 28 1 20 2 20 8 -3 4
-14 13 -24 20 -22 7 1 10 -2 6 -8 -3 -6 -11 -8 -16 -5 -5 4 -9 1 -9 -4 0 -15
25 -14 38 2 6 7 13 25 16 40 4 26 3 27 -34 25 -30 -1 -40 -6 -44 -22z m64 -1
c0 -8 -7 -15 -15 -15 -16 0 -20 12 -8 23 11 12 23 8 23 -8z"/>
<path d="M2354 216 c-8 -22 -1 -39 19 -42 22 -3 22 13 0 19 -13 3 -12 5 5 6
14 1 22 6 20 14 -7 18 -37 21 -44 3z"/>
<path d="M2572 202 c1 -15 -1 -33 -6 -40 -4 -7 -3 -12 2 -12 6 0 19 18 31 40
11 22 16 40 11 40 -6 0 -10 -7 -10 -16 0 -8 -5 -12 -10 -9 -6 4 -8 11 -5 16 4
5 1 9 -5 9 -5 0 -9 -13 -8 -28z"/>
</g>
</svg>
