<?xml version="1.0" standalone="no"?>
<!DOCTYPE svg PUBLIC "-//W3C//DTD SVG 20010904//EN"
 "http://www.w3.org/TR/2001/REC-SVG-20010904/DTD/svg10.dtd">
<svg version="1.0" xmlns="http://www.w3.org/2000/svg"
 width="520.000000pt" height="520.000000pt" viewBox="0 0 520.000000 520.000000"
 preserveAspectRatio="xMidYMid meet">
<metadata>
Created by potrace 1.14, written by Peter Selinger 2001-2017
</metadata>
<g transform="translate(0.000000,520.000000) scale(0.100000,-0.100000)"
fill="#000000" stroke="none">
<path d="M0 3895 l0 -1305 200 0 c165 0 200 -2 200 -14 0 -12 71 -15 438 -17
240 -2 529 -4 642 -4 l205 0 0 28 c-1 15 3 27 7 27 4 0 8 -12 8 -26 0 -20 4
-25 16 -20 9 3 16 6 17 6 1 0 1 20 -1 45 -3 33 0 46 11 51 13 5 10 15 -17 57
-109 172 -148 438 -85 577 50 107 118 159 208 160 l43 0 -31 35 c-62 71 -91
155 -91 266 0 158 73 277 215 345 112 55 127 55 186 -1 95 -89 240 -128 330
-88 61 28 86 55 123 132 27 59 31 76 30 151 0 63 -6 97 -21 131 l-21 47 58 81
c58 81 97 121 120 121 7 0 10 -7 6 -16 -3 -9 -9 -46 -12 -83 -13 -139 35 -221
187 -316 35 -22 90 -62 122 -89 75 -61 93 -61 240 12 5 2 4 -4 -1 -14 -11 -21
-12 -25 -12 -59 0 -22 -19 -37 -97 -80 -1 0 4 -19 12 -40 14 -40 16 -42 47
-30 14 6 15 2 7 -37 -6 -23 -17 -50 -25 -59 -7 -8 -20 -37 -28 -64 -13 -42
-13 -51 0 -69 18 -26 18 -37 -1 -30 -33 13 -13 -15 25 -35 55 -29 60 -27 60
19 l0 40 60 0 c56 0 60 -1 51 -18 -5 -10 -17 -24 -25 -31 -9 -8 -14 -17 -11
-21 3 -5 -9 -13 -26 -19 l-32 -11 29 -22 c122 -94 217 -331 217 -538 -1 -110
-11 -166 -44 -238 -19 -42 -85 -141 -102 -153 -5 -3 1 -9 14 -12 19 -5 21 -11
17 -51 -4 -31 -2 -46 6 -46 6 0 3 -7 -7 -14 -9 -7 -27 -11 -40 -9 -16 3 -26
-4 -39 -27 -19 -34 -10 -41 12 -10 8 11 21 20 30 19 10 0 11 -2 2 -6 -6 -2
-12 -8 -12 -13 0 -9 40 -8 56 3 6 3 19 4 30 2 10 -2 90 -4 177 -4 124 -1 157
-4 157 -14 0 -11 115 -15 637 -20 422 -4 639 -10 641 -17 2 -5 21 -10 43 -10
l39 0 0 1375 0 1375 -2600 0 -2600 0 0 -1305z m1995 841 c95 -45 179 -130 235
-238 24 -46 47 -84 52 -86 8 -4 12 -32 4 -32 -2 0 -11 -3 -20 -6 -12 -5 -16 0
-16 20 0 23 -31 97 -64 153 -13 24 -86 98 -86 88 0 -3 -10 5 -21 16 -23 23
-159 89 -181 89 -7 0 -22 -7 -32 -15 -17 -13 -21 -12 -32 3 -7 9 -14 25 -14
35 0 17 6 18 53 12 28 -3 84 -21 122 -39z m1217 -98 c-31 -9 -42 -3 -42 21 0
17 2 18 33 2 l34 -16 -25 -7z m585 19 l61 3 -15 -40 c-13 -32 -23 -42 -52 -50
-46 -13 -86 -13 -133 1 -43 11 -44 15 -21 64 17 35 18 36 58 28 22 -4 68 -7
102 -6z m-462 -129 c0 -41 -3 -44 -44 -65 -43 -22 -127 -40 -137 -30 -3 3 -2
26 1 51 7 41 10 46 34 46 14 1 49 9 76 19 71 26 71 26 70 -21z m-852 8 c18 -7
45 -25 62 -39 23 -21 27 -29 17 -39 -8 -8 -12 -9 -12 -1 0 7 -9 15 -21 18 -12
4 -18 12 -15 21 6 16 -10 19 -19 4 -5 -8 -11 -8 -20 0 -9 7 -26 8 -60 0 -55
-12 -65 -8 -41 19 16 17 28 23 69 30 4 0 22 -5 40 -13z m1219 -61 l87 1 -15
-36 c-8 -19 -20 -39 -25 -45 -5 -5 -52 -10 -104 -10 -52 0 -98 5 -103 10 -6 6
-2 26 10 53 17 37 22 42 41 35 12 -4 61 -8 109 -8z m-362 -134 c0 -31 -6 -44
-26 -60 -29 -23 -113 -51 -151 -51 -21 0 -23 4 -23 50 l0 50 38 0 c20 0 62 11
92 24 30 13 58 24 63 25 4 0 7 -17 7 -38z m-804 5 c15 -12 17 -17 6 -28 -15
-15 -45 0 -50 26 -4 20 18 21 44 2z m1016 -57 c39 -8 69 -8 104 -1 27 6 50 9
52 7 6 -5 -29 -79 -41 -87 -38 -23 -227 -15 -215 10 2 4 10 24 18 45 8 20 17
37 20 37 4 0 32 -5 62 -11z m-1 -186 c43 3 79 4 79 2 0 -1 -7 -18 -15 -38 -10
-24 -24 -38 -46 -46 -43 -15 -161 -14 -182 2 -15 11 -15 15 3 54 18 42 19 42
50 31 19 -6 64 -8 111 -5z m-66 -186 c30 5 55 7 55 4 0 -3 -10 -24 -23 -46
-24 -42 -46 -53 -117 -54 -63 -1 -71 7 -64 60 l6 46 44 -10 c29 -7 62 -7 99 0z
m-1770 -1257 c3 -5 1 -10 -4 -10 -6 0 -11 5 -11 10 0 6 2 10 4 10 3 0 8 -4 11
-10z m1782 -92 c-3 -8 -6 -5 -6 6 -1 11 2 17 5 13 3 -3 4 -12 1 -19z"/>
<path d="M1778 2573 c12 -2 32 -2 45 0 12 2 2 4 -23 4 -25 0 -35 -2 -22 -4z"/>
<path d="M2098 2573 c12 -2 32 -2 45 0 12 2 2 4 -23 4 -25 0 -35 -2 -22 -4z"/>
<path d="M2358 2573 c23 -2 61 -2 85 0 23 2 4 4 -43 4 -47 0 -66 -2 -42 -4z"/>
<path d="M2998 2573 c23 -2 61 -2 85 0 23 2 4 4 -43 4 -47 0 -66 -2 -42 -4z"/>
<path d="M3218 2573 c12 -2 32 -2 45 0 12 2 2 4 -23 4 -25 0 -35 -2 -22 -4z"/>
<path d="M3378 2573 c12 -2 32 -2 45 0 12 2 2 4 -23 4 -25 0 -35 -2 -22 -4z"/>
<path d="M1760 2543 c0 -11 48 -32 54 -25 10 9 -16 32 -35 32 -11 0 -19 -3
-19 -7z"/>
</g>
</svg>
